<?xml version="1.0" encoding="UTF-8" standalone="no"?> <!-- Created with Vectornator for iOS (http://vectornator.io/) --><!DOCTYPE svg PUBLIC "-//W3C//DTD SVG 1.1//EN" "http://www.w3.org/Graphics/SVG/1.1/DTD/svg11.dtd">
<svg height="100%" style="fill-rule:evenodd;clip-rule:evenodd;stroke-linecap:round;stroke-linejoin:round;" xmlns:xlink="http://www.w3.org/1999/xlink" xmlns="http://www.w3.org/2000/svg" xml:space="preserve" width="100%" xmlns:vectornator="http://vectornator.io" version="1.1" viewBox="0 0 500 200">
<metadata>
<vectornator:setting key="DimensionsVisible" value="1"/>
<vectornator:setting key="PencilOnly" value="0"/>
<vectornator:setting key="SnapToPoints" value="0"/>
<vectornator:setting key="OutlineMode" value="0"/>
<vectornator:setting key="CMYKEnabledKey" value="0"/>
<vectornator:setting key="RulersVisible" value="1"/>
<vectornator:setting key="SnapToEdges" value="0"/>
<vectornator:setting key="GuidesVisible" value="1"/>
<vectornator:setting key="DisplayWhiteBackground" value="0"/>
<vectornator:setting key="doHistoryDisabled" value="0"/>
<vectornator:setting key="SnapToGuides" value="1"/>
<vectornator:setting key="TimeLapseWatermarkDisabled" value="0"/>
<vectornator:setting key="Units" value="Pixels"/>
<vectornator:setting key="DynamicGuides" value="0"/>
<vectornator:setting key="IsolateActiveLayer" value="0"/>
<vectornator:setting key="SnapToGrid" value="0"/>
</metadata>
<defs/>
<g id="Ebene 1" vectornator:layerName="Ebene 1">
<g opacity="1">
<path d="M76.0578+110.052L58.7448+59.6655L40.3449+110.052L76.0578+110.052ZM50.6706+42.7407L68.1388+42.7407L109.519+156.789L92.5944+156.789L81.0265+122.629L35.9196+122.629L23.5754+156.789L7.73747+156.789L50.6706+42.7407Z" opacity="1" fill="#3ce6eb"/>
<path d="M176.597+94.9902C183.843+94.9902+189.576+93.541+193.794+90.6425C198.012+87.7441+200.121+82.5166+200.121+74.9599C200.121+66.8339+197.171+61.2959+191.271+58.3457C188.113+56.7929+183.895+56.0166+178.616+56.0166L140.884+56.0166L140.884+94.9902L176.597+94.9902ZM125.435+42.7407L178.228+42.7407C186.923+42.7407+194.091+44.0088+199.733+46.5449C210.447+51.4101+215.804+60.3901+215.804+73.4848C215.804+80.3169+214.393+85.9067+211.573+90.2544C208.752+94.602+204.805+98.0957+199.733+100.735C204.184+102.547+207.536+104.928+209.787+107.878C212.038+110.828+213.294+115.616+213.552+122.241L214.096+137.535C214.251+141.883+214.613+145.118+215.183+147.24C216.114+150.863+217.771+153.192+220.152+154.227L220.152+156.789L201.208+156.789C200.691+155.806+200.277+154.538+199.966+152.985C199.655+151.432+199.397+148.43+199.19+143.979L198.258+124.958C197.896+117.505+195.127+112.51+189.951+109.974C187.001+108.577+182.368+107.878+176.054+107.878L140.884+107.878L140.884+156.789L125.435+156.789L125.435+42.7407Z" opacity="1" fill="#3ce6eb"/>
<path d="M236.533+74.0283L250.74+74.0283L250.74+156.789L236.533+156.789L236.533+74.0283ZM236.533+42.7407L250.74+42.7407L250.74+58.5786L236.533+58.5786L236.533+42.7407Z" opacity="1" fill="#3ce6eb"/>
<path d="M273.333+42.7407L295.459+42.7407L328.222+139.165L360.752+42.7407L382.645+42.7407L382.645+156.789L367.972+156.789L367.972+89.478C367.972+87.1489+368.024+83.2929+368.127+77.9101C368.231+72.5273+368.282+66.7563+368.282+60.5971L335.753+156.789L320.458+156.789L287.695+60.5971L287.695+64.0908C287.695+66.8857+287.76+71.1428+287.89+76.862C288.019+82.5813+288.084+86.7866+288.084+89.478L288.084+156.789L273.333+156.789L273.333+42.7407Z" opacity="1" fill="#3ce6eb"/>
<path d="M433.653+72.165C440.174+72.165+445.867+73.7695+450.733+76.9785C453.372+78.79+456.064+81.4297+458.807+84.8974L458.807+74.4165L471.695+74.4165L471.695+150.035C471.695+160.593+470.142+168.926+467.036+175.034C461.239+186.317+450.293+191.958+434.196+191.958C425.242+191.958+417.711+189.953+411.604+185.942C405.496+181.93+402.08+175.655+401.356+167.115L415.563+167.115C416.236+170.841+417.582+173.714+419.6+175.732C422.757+178.838+427.726+180.391+434.507+180.391C445.22+180.391+452.234+176.612+455.546+169.056C457.513+164.604+458.419+156.66+458.263+145.221C455.468+149.465+452.104+152.623+448.171+154.693C444.237+156.763+439.035+157.798+432.566+157.798C423.56+157.798+415.68+154.602+408.925+148.21C402.171+141.818+398.794+131.247+398.794+116.496C398.794+102.573+402.197+91.7036+409.003+83.8881C415.809+76.0727+424.026+72.165+433.653+72.165ZM458.807+114.865C458.807+104.565+456.685+96.9311+452.441+91.9624C448.196+86.9936+442.788+84.5092+436.215+84.5092C426.381+84.5092+419.652+89.1157+416.029+98.3286C414.114+103.246+413.156+109.689+413.156+117.66C413.156+127.028+415.059+134.158+418.863+139.049C422.667+143.94+427.778+146.386+434.196+146.386C444.237+146.386+451.302+141.857+455.391+132.799C457.668+127.675+458.807+121.697+458.807+114.865Z" opacity="1" fill="#3ce6eb"/>
</g>
</g>
</svg>

